<svg xmlns="http://www.w3.org/2000/svg" version="1.1" xmlns:xlink="http://www.w3.org/1999/xlink" xmlns:svgjs="http://svgjs.com/svgjs" width="1444" height="567" preserveAspectRatio="none" viewBox="0 0 1444 567"><g mask="url(&quot;#SvgjsMask1000&quot;)" fill="none"><rect width="1444" height="567" x="0" y="0" fill="#0e2a47"></rect><path d="M-38.97 356.72L-38.97 356.72" stroke="#132e65" stroke-width="1.5"></path><path d="M-38.97 356.72L105.76 404.77" stroke="#132e65" stroke-width="1.5"></path><path d="M-38.97 356.72L-80.86 521.59" stroke="#132e65" stroke-width="1.5"></path><path d="M-80.86 521.59L-80.86 521.59" stroke="#132e65" stroke-width="1.5"></path><path d="M-80.86 521.59L42.68 548.89" stroke="#132e65" stroke-width="1.5"></path><path d="M-80.86 521.59L-100.19 681.96" stroke="#132e65" stroke-width="1.5"></path><path d="M-80.86 521.59L105.76 404.77" stroke="#132e65" stroke-width="1.5"></path><path d="M-100.19 681.96L-100.19 681.96" stroke="#132e65" stroke-width="1.5"></path><path d="M-100.19 681.96L84.91 671.49" stroke="#132e65" stroke-width="1.5"></path><path d="M-100.19 681.96L42.68 548.89" stroke="#132e65" stroke-width="1.5"></path><path d="M-100.19 681.96L-38.97 356.72" stroke="#132e65" stroke-width="1.5"></path><path d="M-100.19 681.96L105.76 404.77" stroke="#132e65" stroke-width="1.5"></path><path d="M105.76 404.77L105.76 404.77" stroke="#132e65" stroke-width="1.5"></path><path d="M105.76 404.77L236.69 339.05" stroke="#132e65" stroke-width="1.5"></path><path d="M105.76 404.77L42.68 548.89" stroke="#132e65" stroke-width="1.5"></path><path d="M42.68 548.89L42.68 548.89" stroke="#132e65" stroke-width="1.5"></path><path d="M42.68 548.89L84.91 671.49" stroke="#132e65" stroke-width="1.5"></path><path d="M42.68 548.89L247.73 528.32" stroke="#132e65" stroke-width="1.5"></path><path d="M42.68 548.89L-38.97 356.72" stroke="#132e65" stroke-width="1.5"></path><path d="M84.91 671.49L84.91 671.49" stroke="#132e65" stroke-width="1.5"></path><path d="M84.91 671.49L252.19 683.95" stroke="#132e65" stroke-width="1.5"></path><path d="M84.91 671.49L247.73 528.32" stroke="#132e65" stroke-width="1.5"></path><path d="M84.91 671.49L-80.86 521.59" stroke="#132e65" stroke-width="1.5"></path><path d="M84.91 671.49L105.76 404.77" stroke="#132e65" stroke-width="1.5"></path><path d="M236.69 339.05L236.69 339.05" stroke="#132e65" stroke-width="1.5"></path><path d="M236.69 339.05L247.73 528.32" stroke="#132e65" stroke-width="1.5"></path><path d="M236.69 339.05L375.46 512.57" stroke="#132e65" stroke-width="1.5"></path><path d="M236.69 339.05L-38.97 356.72" stroke="#132e65" stroke-width="1.5"></path><path d="M247.73 528.32L247.73 528.32" stroke="#132e65" stroke-width="1.5"></path><path d="M247.73 528.32L375.46 512.57" stroke="#132e65" stroke-width="1.5"></path><path d="M247.73 528.32L252.19 683.95" stroke="#132e65" stroke-width="1.5"></path><path d="M247.73 528.32L105.76 404.77" stroke="#132e65" stroke-width="1.5"></path><path d="M252.19 683.95L252.19 683.95" stroke="#132e65" stroke-width="1.5"></path><path d="M252.19 683.95L384.34 686.28" stroke="#132e65" stroke-width="1.5"></path><path d="M252.19 683.95L375.46 512.57" stroke="#132e65" stroke-width="1.5"></path><path d="M252.19 683.95L42.68 548.89" stroke="#132e65" stroke-width="1.5"></path><path d="M252.19 683.95L533.84 688.54" stroke="#132e65" stroke-width="1.5"></path><path d="M375.46 512.57L375.46 512.57" stroke="#132e65" stroke-width="1.5"></path><path d="M375.46 512.57L384.34 686.28" stroke="#132e65" stroke-width="1.5"></path><path d="M384.34 686.28L384.34 686.28" stroke="#132e65" stroke-width="1.5"></path><path d="M384.34 686.28L533.84 688.54" stroke="#132e65" stroke-width="1.5"></path><path d="M384.34 686.28L247.73 528.32" stroke="#132e65" stroke-width="1.5"></path><path d="M384.34 686.28L548.65 530.7" stroke="#132e65" stroke-width="1.5"></path><path d="M548.65 530.7L548.65 530.7" stroke="#132e65" stroke-width="1.5"></path><path d="M548.65 530.7L647.36 492.32" stroke="#132e65" stroke-width="1.5"></path><path d="M548.65 530.7L533.84 688.54" stroke="#132e65" stroke-width="1.5"></path><path d="M548.65 530.7L375.46 512.57" stroke="#132e65" stroke-width="1.5"></path><path d="M548.65 530.7L669.34 371.99" stroke="#132e65" stroke-width="1.5"></path><path d="M533.84 688.54L533.84 688.54" stroke="#132e65" stroke-width="1.5"></path><path d="M669.34 371.99L669.34 371.99" stroke="#132e65" stroke-width="1.5"></path><path d="M669.34 371.99L647.36 492.32" stroke="#132e65" stroke-width="1.5"></path><path d="M669.34 371.99L851.2 393.56" stroke="#132e65" stroke-width="1.5"></path><path d="M647.36 492.32L647.36 492.32" stroke="#132e65" stroke-width="1.5"></path><path d="M647.36 492.32L694.51 696.12" stroke="#132e65" stroke-width="1.5"></path><path d="M647.36 492.32L789.83 647.43" stroke="#132e65" stroke-width="1.5"></path><path d="M694.51 696.12L694.51 696.12" stroke="#132e65" stroke-width="1.5"></path><path d="M694.51 696.12L789.83 647.43" stroke="#132e65" stroke-width="1.5"></path><path d="M694.51 696.12L533.84 688.54" stroke="#132e65" stroke-width="1.5"></path><path d="M694.51 696.12L548.65 530.7" stroke="#132e65" stroke-width="1.5"></path><path d="M805.12 233.11L805.12 233.11" stroke="#132e65" stroke-width="1.5"></path><path d="M805.12 233.11L851.2 393.56" stroke="#132e65" stroke-width="1.5"></path><path d="M805.12 233.11L669.34 371.99" stroke="#132e65" stroke-width="1.5"></path><path d="M805.12 233.11L997.27 197.05" stroke="#132e65" stroke-width="1.5"></path><path d="M805.12 233.11L939 63.57" stroke="#132e65" stroke-width="1.5"></path><path d="M805.12 233.11L992.97 344.17" stroke="#132e65" stroke-width="1.5"></path><path d="M851.2 393.56L851.2 393.56" stroke="#132e65" stroke-width="1.5"></path><path d="M851.2 393.56L992.97 344.17" stroke="#132e65" stroke-width="1.5"></path><path d="M851.2 393.56L1000.58 493.7" stroke="#132e65" stroke-width="1.5"></path><path d="M851.2 393.56L647.36 492.32" stroke="#132e65" stroke-width="1.5"></path><path d="M851.2 393.56L997.27 197.05" stroke="#132e65" stroke-width="1.5"></path><path d="M789.83 647.43L789.83 647.43" stroke="#132e65" stroke-width="1.5"></path><path d="M789.83 647.43L979.52 637.63" stroke="#132e65" stroke-width="1.5"></path><path d="M789.83 647.43L533.84 688.54" stroke="#132e65" stroke-width="1.5"></path><path d="M789.83 647.43L1000.58 493.7" stroke="#132e65" stroke-width="1.5"></path><path d="M789.83 647.43L851.2 393.56" stroke="#132e65" stroke-width="1.5"></path><path d="M975.89 -81.65L975.89 -81.65" stroke="#132e65" stroke-width="1.5"></path><path d="M975.89 -81.65L939 63.57" stroke="#132e65" stroke-width="1.5"></path><path d="M975.89 -81.65L1127.88 -77.67" stroke="#132e65" stroke-width="1.5"></path><path d="M975.89 -81.65L1117.88 65.96" stroke="#132e65" stroke-width="1.5"></path><path d="M939 63.57L939 63.57" stroke="#132e65" stroke-width="1.5"></path><path d="M939 63.57L997.27 197.05" stroke="#132e65" stroke-width="1.5"></path><path d="M997.27 197.05L997.27 197.05" stroke="#132e65" stroke-width="1.5"></path><path d="M997.27 197.05L992.97 344.17" stroke="#132e65" stroke-width="1.5"></path><path d="M997.27 197.05L1161.68 234.72" stroke="#132e65" stroke-width="1.5"></path><path d="M997.27 197.05L1117.88 65.96" stroke="#132e65" stroke-width="1.5"></path><path d="M992.97 344.17L992.97 344.17" stroke="#132e65" stroke-width="1.5"></path><path d="M992.97 344.17L1110.93 351.94" stroke="#132e65" stroke-width="1.5"></path><path d="M992.97 344.17L1000.58 493.7" stroke="#132e65" stroke-width="1.5"></path><path d="M992.97 344.17L1161.68 234.72" stroke="#132e65" stroke-width="1.5"></path><path d="M1000.58 493.7L1000.58 493.7" stroke="#132e65" stroke-width="1.5"></path><path d="M1000.58 493.7L979.52 637.63" stroke="#132e65" stroke-width="1.5"></path><path d="M1000.58 493.7L1151.17 522.82" stroke="#132e65" stroke-width="1.5"></path><path d="M1000.58 493.7L1110.93 351.94" stroke="#132e65" stroke-width="1.5"></path><path d="M979.52 637.63L979.52 637.63" stroke="#132e65" stroke-width="1.5"></path><path d="M979.52 637.63L1145.84 642.65" stroke="#132e65" stroke-width="1.5"></path><path d="M979.52 637.63L1151.17 522.82" stroke="#132e65" stroke-width="1.5"></path><path d="M979.52 637.63L851.2 393.56" stroke="#132e65" stroke-width="1.5"></path><path d="M979.52 637.63L694.51 696.12" stroke="#132e65" stroke-width="1.5"></path><path d="M1127.88 -77.67L1127.88 -77.67" stroke="#132e65" stroke-width="1.5"></path><path d="M1127.88 -77.67L1253.12 -50.35" stroke="#132e65" stroke-width="1.5"></path><path d="M1127.88 -77.67L1117.88 65.96" stroke="#132e65" stroke-width="1.5"></path><path d="M1117.88 65.96L1117.88 65.96" stroke="#132e65" stroke-width="1.5"></path><path d="M1117.88 65.96L1276.22 74.29" stroke="#132e65" stroke-width="1.5"></path><path d="M1117.88 65.96L1161.68 234.72" stroke="#132e65" stroke-width="1.5"></path><path d="M1117.88 65.96L1253.12 -50.35" stroke="#132e65" stroke-width="1.5"></path><path d="M1117.88 65.96L939 63.57" stroke="#132e65" stroke-width="1.5"></path><path d="M1161.68 234.72L1161.68 234.72" stroke="#132e65" stroke-width="1.5"></path><path d="M1161.68 234.72L1110.93 351.94" stroke="#132e65" stroke-width="1.5"></path><path d="M1110.93 351.94L1110.93 351.94" stroke="#132e65" stroke-width="1.5"></path><path d="M1110.93 351.94L1151.17 522.82" stroke="#132e65" stroke-width="1.5"></path><path d="M1110.93 351.94L997.27 197.05" stroke="#132e65" stroke-width="1.5"></path><path d="M1151.17 522.82L1151.17 522.82" stroke="#132e65" stroke-width="1.5"></path><path d="M1151.17 522.82L1145.84 642.65" stroke="#132e65" stroke-width="1.5"></path><path d="M1151.17 522.82L1302.5 406.99" stroke="#132e65" stroke-width="1.5"></path><path d="M1145.84 642.65L1145.84 642.65" stroke="#132e65" stroke-width="1.5"></path><path d="M1145.84 642.65L1000.58 493.7" stroke="#132e65" stroke-width="1.5"></path><path d="M1253.12 -50.35L1253.12 -50.35" stroke="#132e65" stroke-width="1.5"></path><path d="M1253.12 -50.35L1276.22 74.29" stroke="#132e65" stroke-width="1.5"></path><path d="M1276.22 74.29L1276.22 74.29" stroke="#132e65" stroke-width="1.5"></path><path d="M1276.22 74.29L1411.42 64.47" stroke="#132e65" stroke-width="1.5"></path><path d="M1302.5 406.99L1302.5 406.99" stroke="#132e65" stroke-width="1.5"></path><path d="M1302.5 406.99L1416.39 405.82" stroke="#132e65" stroke-width="1.5"></path><path d="M1302.5 406.99L1428.3 506.55" stroke="#132e65" stroke-width="1.5"></path><path d="M1302.5 406.99L1110.93 351.94" stroke="#132e65" stroke-width="1.5"></path><path d="M1302.5 406.99L1161.68 234.72" stroke="#132e65" stroke-width="1.5"></path><path d="M1425.62 -55.31L1425.62 -55.31" stroke="#132e65" stroke-width="1.5"></path><path d="M1425.62 -55.31L1411.42 64.47" stroke="#132e65" stroke-width="1.5"></path><path d="M1425.62 -55.31L1537.51 45.06" stroke="#132e65" stroke-width="1.5"></path><path d="M1411.42 64.47L1411.42 64.47" stroke="#132e65" stroke-width="1.5"></path><path d="M1411.42 64.47L1537.51 45.06" stroke="#132e65" stroke-width="1.5"></path><path d="M1411.42 64.47L1415.43 206.22" stroke="#132e65" stroke-width="1.5"></path><path d="M1415.43 206.22L1415.43 206.22" stroke="#132e65" stroke-width="1.5"></path><path d="M1415.43 206.22L1593.03 250.15" stroke="#132e65" stroke-width="1.5"></path><path d="M1416.39 405.82L1416.39 405.82" stroke="#132e65" stroke-width="1.5"></path><path d="M1416.39 405.82L1428.3 506.55" stroke="#132e65" stroke-width="1.5"></path><path d="M1416.39 405.82L1560.96 338.43" stroke="#132e65" stroke-width="1.5"></path><path d="M1428.3 506.55L1428.3 506.55" stroke="#132e65" stroke-width="1.5"></path><path d="M1428.3 506.55L1431.51 639.65" stroke="#132e65" stroke-width="1.5"></path><path d="M1431.51 639.65L1431.51 639.65" stroke="#132e65" stroke-width="1.5"></path><path d="M1431.51 639.65L1590.03 687.07" stroke="#132e65" stroke-width="1.5"></path><path d="M1431.51 639.65L1416.39 405.82" stroke="#132e65" stroke-width="1.5"></path><path d="M1431.51 639.65L1302.5 406.99" stroke="#132e65" stroke-width="1.5"></path><path d="M1607.28 -73.57L1607.28 -73.57" stroke="#132e65" stroke-width="1.5"></path><path d="M1607.28 -73.57L1537.51 45.06" stroke="#132e65" stroke-width="1.5"></path><path d="M1607.28 -73.57L1425.62 -55.31" stroke="#132e65" stroke-width="1.5"></path><path d="M1607.28 -73.57L1411.42 64.47" stroke="#132e65" stroke-width="1.5"></path><path d="M1607.28 -73.57L1593.03 250.15" stroke="#132e65" stroke-width="1.5"></path><path d="M1537.51 45.06L1537.51 45.06" stroke="#132e65" stroke-width="1.5"></path><path d="M1593.03 250.15L1593.03 250.15" stroke="#132e65" stroke-width="1.5"></path><path d="M1593.03 250.15L1560.96 338.43" stroke="#132e65" stroke-width="1.5"></path><path d="M1593.03 250.15L1537.51 45.06" stroke="#132e65" stroke-width="1.5"></path><path d="M1593.03 250.15L1416.39 405.82" stroke="#132e65" stroke-width="1.5"></path><path d="M1560.96 338.43L1560.96 338.43" stroke="#132e65" stroke-width="1.5"></path><path d="M1560.96 338.43L1415.43 206.22" stroke="#132e65" stroke-width="1.5"></path><path d="M1560.96 338.43L1428.3 506.55" stroke="#132e65" stroke-width="1.5"></path><path d="M1590.03 687.07L1590.03 687.07" stroke="#132e65" stroke-width="1.5"></path><path d="M1590.03 687.07L1428.3 506.55" stroke="#132e65" stroke-width="1.5"></path><circle r="5" cx="-38.97" cy="356.72" fill="#132e65"></circle><circle r="5" cx="-80.86" cy="521.59" fill="#132e65"></circle><circle r="5" cx="-100.19" cy="681.96" fill="#132e65"></circle><circle r="5" cx="105.76" cy="404.77" fill="#132e65"></circle><circle r="5" cx="42.68" cy="548.89" fill="#132e65"></circle><circle r="5" cx="84.91" cy="671.49" fill="#132e65"></circle><circle r="5" cx="236.69" cy="339.05" fill="#132e65"></circle><circle r="5" cx="247.73" cy="528.32" fill="#132e65"></circle><circle r="5" cx="252.19" cy="683.95" fill="#132e65"></circle><circle r="5" cx="375.46" cy="512.57" fill="#132e65"></circle><circle r="5" cx="384.34" cy="686.28" fill="#132e65"></circle><circle r="5" cx="548.65" cy="530.7" fill="#132e65"></circle><circle r="5" cx="533.84" cy="688.54" fill="#132e65"></circle><circle r="5" cx="669.34" cy="371.99" fill="#132e65"></circle><circle r="5" cx="647.36" cy="492.32" fill="#132e65"></circle><circle r="5" cx="694.51" cy="696.12" fill="#132e65"></circle><circle r="5" cx="805.12" cy="233.11" fill="#132e65"></circle><circle r="5" cx="851.2" cy="393.56" fill="#132e65"></circle><circle r="5" cx="789.83" cy="647.43" fill="#132e65"></circle><circle r="5" cx="975.89" cy="-81.65" fill="#132e65"></circle><circle r="5" cx="939" cy="63.57" fill="#132e65"></circle><circle r="5" cx="997.27" cy="197.05" fill="#132e65"></circle><circle r="5" cx="992.97" cy="344.17" fill="#132e65"></circle><circle r="5" cx="1000.58" cy="493.7" fill="#132e65"></circle><circle r="5" cx="979.52" cy="637.63" fill="#132e65"></circle><circle r="5" cx="1127.88" cy="-77.67" fill="#132e65"></circle><circle r="5" cx="1117.88" cy="65.96" fill="#132e65"></circle><circle r="5" cx="1161.68" cy="234.72" fill="#132e65"></circle><circle r="5" cx="1110.93" cy="351.94" fill="#132e65"></circle><circle r="5" cx="1151.17" cy="522.82" fill="#132e65"></circle><circle r="5" cx="1145.84" cy="642.65" fill="#132e65"></circle><circle r="5" cx="1253.12" cy="-50.35" fill="#132e65"></circle><circle r="5" cx="1276.22" cy="74.29" fill="#132e65"></circle><circle r="5" cx="1302.5" cy="406.99" fill="#132e65"></circle><circle r="5" cx="1425.62" cy="-55.31" fill="#132e65"></circle><circle r="5" cx="1411.42" cy="64.47" fill="#132e65"></circle><circle r="5" cx="1415.43" cy="206.22" fill="#132e65"></circle><circle r="5" cx="1416.39" cy="405.82" fill="#132e65"></circle><circle r="5" cx="1428.3" cy="506.55" fill="#132e65"></circle><circle r="5" cx="1431.51" cy="639.65" fill="#132e65"></circle><circle r="5" cx="1607.28" cy="-73.57" fill="#132e65"></circle><circle r="5" cx="1537.51" cy="45.06" fill="#132e65"></circle><circle r="5" cx="1593.03" cy="250.15" fill="#132e65"></circle><circle r="5" cx="1560.96" cy="338.43" fill="#132e65"></circle><circle r="5" cx="1590.03" cy="687.07" fill="#132e65"></circle><path d="M201.69 641.27L201.69 641.27" stroke="hsl(228.5, 77.2%, 51.5%)" stroke-width="1.5"></path><path d="M201.69 641.27L230.72 532.26" stroke="hsl(228.5, 77.2%, 51.5%)" stroke-width="1.5"></path><path d="M201.69 641.27L72.33 674.67" stroke="hsl(228.5, 77.2%, 51.5%)" stroke-width="1.5"></path><path d="M201.69 641.27L359.8 640.55" stroke="hsl(228.5, 77.2%, 51.5%)" stroke-width="1.5"></path><path d="M201.69 641.27L54.32 525.69" stroke="hsl(228.5, 77.2%, 51.5%)" stroke-width="1.5"></path><path d="M1162.05 -71.09L1162.05 -71.09" stroke="hsl(228.5, 77.2%, 51.5%)" stroke-width="1.5"></path><path d="M1162.05 -71.09L1280.02 -74.36" stroke="hsl(228.5, 77.2%, 51.5%)" stroke-width="1.5"></path><path d="M1162.05 -71.09L1269.44 86.69" stroke="hsl(228.5, 77.2%, 51.5%)" stroke-width="1.5"></path><path d="M1162.05 -71.09L1457.59 -63.24" stroke="hsl(228.5, 77.2%, 51.5%)" stroke-width="1.5"></path><path d="M1162.05 -71.09L1424.05 90.2" stroke="hsl(228.5, 77.2%, 51.5%)" stroke-width="1.5"></path><path d="M1162.05 -71.09L1123.26 255.26" stroke="hsl(228.5, 77.2%, 51.5%)" stroke-width="1.5"></path><path d="M1162.05 -71.09L1419.81 209.65" stroke="hsl(228.5, 77.2%, 51.5%)" stroke-width="1.5"></path><path d="M1280.02 -74.36L1280.02 -74.36" stroke="hsl(228.5, 77.2%, 51.5%)" stroke-width="1.5"></path><path d="M1280.02 -74.36L1269.44 86.69" stroke="hsl(228.5, 77.2%, 51.5%)" stroke-width="1.5"></path><path d="M1280.02 -74.36L1457.59 -63.24" stroke="hsl(228.5, 77.2%, 51.5%)" stroke-width="1.5"></path><path d="M1280.02 -74.36L1424.05 90.2" stroke="hsl(228.5, 77.2%, 51.5%)" stroke-width="1.5"></path><path d="M1280.02 -74.36L1419.81 209.65" stroke="hsl(228.5, 77.2%, 51.5%)" stroke-width="1.5"></path><path d="M1280.02 -74.36L1607.5 -72.03" stroke="hsl(228.5, 77.2%, 51.5%)" stroke-width="1.5"></path><path d="M1299.49 360.38L1299.49 360.38" stroke="hsl(228.5, 77.2%, 51.5%)" stroke-width="1.5"></path><path d="M1299.49 360.38L1428.16 386" stroke="hsl(228.5, 77.2%, 51.5%)" stroke-width="1.5"></path><path d="M1588.8 216.28L1588.8 216.28" stroke="hsl(228.5, 77.2%, 51.5%)" stroke-width="1.5"></path><path d="M1588.8 216.28L1589.1 86.91" stroke="hsl(228.5, 77.2%, 51.5%)" stroke-width="1.5"></path><path d="M1588.8 216.28L1581.34 360.31" stroke="hsl(228.5, 77.2%, 51.5%)" stroke-width="1.5"></path><path d="M1581.34 360.31L1581.34 360.31" stroke="hsl(228.5, 77.2%, 51.5%)" stroke-width="1.5"></path><path d="M-83.61 519.52L-83.61 519.52" stroke="hsl(228.5, 77.2%, 51.5%)" stroke-width="1.5"></path><path d="M-83.61 519.52L54.32 525.69" stroke="hsl(228.5, 77.2%, 51.5%)" stroke-width="1.5"></path><path d="M-83.61 519.52L-39.45 658.82" stroke="hsl(228.5, 77.2%, 51.5%)" stroke-width="1.5"></path><path d="M-83.61 519.52L72.33 674.67" stroke="hsl(228.5, 77.2%, 51.5%)" stroke-width="1.5"></path><path d="M-83.61 519.52L201.69 641.27" stroke="hsl(228.5, 77.2%, 51.5%)" stroke-width="1.5"></path><path d="M-83.61 519.52L230.72 532.26" stroke="hsl(228.5, 77.2%, 51.5%)" stroke-width="1.5"></path><path d="M-39.45 658.82L-39.45 658.82" stroke="hsl(228.5, 77.2%, 51.5%)" stroke-width="1.5"></path><path d="M-39.45 658.82L72.33 674.67" stroke="hsl(228.5, 77.2%, 51.5%)" stroke-width="1.5"></path><path d="M54.32 525.69L54.32 525.69" stroke="hsl(228.5, 77.2%, 51.5%)" stroke-width="1.5"></path><path d="M54.32 525.69L72.33 674.67" stroke="hsl(228.5, 77.2%, 51.5%)" stroke-width="1.5"></path><path d="M54.32 525.69L-39.45 658.82" stroke="hsl(228.5, 77.2%, 51.5%)" stroke-width="1.5"></path><path d="M54.32 525.69L230.72 532.26" stroke="hsl(228.5, 77.2%, 51.5%)" stroke-width="1.5"></path><path d="M54.32 525.69L361.69 543.31" stroke="hsl(228.5, 77.2%, 51.5%)" stroke-width="1.5"></path><path d="M72.33 674.67L72.33 674.67" stroke="hsl(228.5, 77.2%, 51.5%)" stroke-width="1.5"></path><path d="M72.33 674.67L230.72 532.26" stroke="hsl(228.5, 77.2%, 51.5%)" stroke-width="1.5"></path><path d="M230.72 532.26L230.72 532.26" stroke="hsl(228.5, 77.2%, 51.5%)" stroke-width="1.5"></path><path d="M230.72 532.26L361.69 543.31" stroke="hsl(228.5, 77.2%, 51.5%)" stroke-width="1.5"></path><path d="M230.72 532.26L359.8 640.55" stroke="hsl(228.5, 77.2%, 51.5%)" stroke-width="1.5"></path><path d="M361.69 543.31L361.69 543.31" stroke="hsl(228.5, 77.2%, 51.5%)" stroke-width="1.5"></path><path d="M361.69 543.31L359.8 640.55" stroke="hsl(228.5, 77.2%, 51.5%)" stroke-width="1.5"></path><path d="M359.8 640.55L359.8 640.55" stroke="hsl(228.5, 77.2%, 51.5%)" stroke-width="1.5"></path><path d="M359.8 640.55L514.72 504.8" stroke="hsl(228.5, 77.2%, 51.5%)" stroke-width="1.5"></path><path d="M359.8 640.55L560.2 691.52" stroke="hsl(228.5, 77.2%, 51.5%)" stroke-width="1.5"></path><path d="M359.8 640.55L72.33 674.67" stroke="hsl(228.5, 77.2%, 51.5%)" stroke-width="1.5"></path><path d="M514.72 504.8L514.72 504.8" stroke="hsl(228.5, 77.2%, 51.5%)" stroke-width="1.5"></path><path d="M514.72 504.8L361.69 543.31" stroke="hsl(228.5, 77.2%, 51.5%)" stroke-width="1.5"></path><path d="M514.72 504.8L670.57 545.13" stroke="hsl(228.5, 77.2%, 51.5%)" stroke-width="1.5"></path><path d="M560.2 691.52L560.2 691.52" stroke="hsl(228.5, 77.2%, 51.5%)" stroke-width="1.5"></path><path d="M560.2 691.52L710.07 653.74" stroke="hsl(228.5, 77.2%, 51.5%)" stroke-width="1.5"></path><path d="M560.2 691.52L670.57 545.13" stroke="hsl(228.5, 77.2%, 51.5%)" stroke-width="1.5"></path><path d="M560.2 691.52L514.72 504.8" stroke="hsl(228.5, 77.2%, 51.5%)" stroke-width="1.5"></path><path d="M648.39 389.25L648.39 389.25" stroke="hsl(228.5, 77.2%, 51.5%)" stroke-width="1.5"></path><path d="M648.39 389.25L792.54 346.25" stroke="hsl(228.5, 77.2%, 51.5%)" stroke-width="1.5"></path><path d="M648.39 389.25L670.57 545.13" stroke="hsl(228.5, 77.2%, 51.5%)" stroke-width="1.5"></path><path d="M648.39 389.25L514.72 504.8" stroke="hsl(228.5, 77.2%, 51.5%)" stroke-width="1.5"></path><path d="M648.39 389.25L831.17 508.66" stroke="hsl(228.5, 77.2%, 51.5%)" stroke-width="1.5"></path><path d="M670.57 545.13L670.57 545.13" stroke="hsl(228.5, 77.2%, 51.5%)" stroke-width="1.5"></path><path d="M670.57 545.13L710.07 653.74" stroke="hsl(228.5, 77.2%, 51.5%)" stroke-width="1.5"></path><path d="M670.57 545.13L831.17 508.66" stroke="hsl(228.5, 77.2%, 51.5%)" stroke-width="1.5"></path><path d="M670.57 545.13L846.58 640" stroke="hsl(228.5, 77.2%, 51.5%)" stroke-width="1.5"></path><path d="M710.07 653.74L710.07 653.74" stroke="hsl(228.5, 77.2%, 51.5%)" stroke-width="1.5"></path><path d="M710.07 653.74L846.58 640" stroke="hsl(228.5, 77.2%, 51.5%)" stroke-width="1.5"></path><path d="M710.07 653.74L831.17 508.66" stroke="hsl(228.5, 77.2%, 51.5%)" stroke-width="1.5"></path><path d="M792.54 346.25L792.54 346.25" stroke="hsl(228.5, 77.2%, 51.5%)" stroke-width="1.5"></path><path d="M792.54 346.25L831.17 508.66" stroke="hsl(228.5, 77.2%, 51.5%)" stroke-width="1.5"></path><path d="M792.54 346.25L1004.61 407.96" stroke="hsl(228.5, 77.2%, 51.5%)" stroke-width="1.5"></path><path d="M792.54 346.25L947.64 519.37" stroke="hsl(228.5, 77.2%, 51.5%)" stroke-width="1.5"></path><path d="M792.54 346.25L670.57 545.13" stroke="hsl(228.5, 77.2%, 51.5%)" stroke-width="1.5"></path><path d="M831.17 508.66L831.17 508.66" stroke="hsl(228.5, 77.2%, 51.5%)" stroke-width="1.5"></path><path d="M831.17 508.66L947.64 519.37" stroke="hsl(228.5, 77.2%, 51.5%)" stroke-width="1.5"></path><path d="M831.17 508.66L846.58 640" stroke="hsl(228.5, 77.2%, 51.5%)" stroke-width="1.5"></path><path d="M846.58 640L846.58 640" stroke="hsl(228.5, 77.2%, 51.5%)" stroke-width="1.5"></path><path d="M846.58 640L966.92 640.63" stroke="hsl(228.5, 77.2%, 51.5%)" stroke-width="1.5"></path><path d="M846.58 640L947.64 519.37" stroke="hsl(228.5, 77.2%, 51.5%)" stroke-width="1.5"></path><path d="M1004.61 407.96L1004.61 407.96" stroke="hsl(228.5, 77.2%, 51.5%)" stroke-width="1.5"></path><path d="M1004.61 407.96L1108.89 406.13" stroke="hsl(228.5, 77.2%, 51.5%)" stroke-width="1.5"></path><path d="M1004.61 407.96L947.64 519.37" stroke="hsl(228.5, 77.2%, 51.5%)" stroke-width="1.5"></path><path d="M947.64 519.37L947.64 519.37" stroke="hsl(228.5, 77.2%, 51.5%)" stroke-width="1.5"></path><path d="M947.64 519.37L966.92 640.63" stroke="hsl(228.5, 77.2%, 51.5%)" stroke-width="1.5"></path><path d="M966.92 640.63L966.92 640.63" stroke="hsl(228.5, 77.2%, 51.5%)" stroke-width="1.5"></path><path d="M966.92 640.63L1133.93 655.11" stroke="hsl(228.5, 77.2%, 51.5%)" stroke-width="1.5"></path><path d="M1123.26 255.26L1123.26 255.26" stroke="hsl(228.5, 77.2%, 51.5%)" stroke-width="1.5"></path><path d="M1123.26 255.26L1108.89 406.13" stroke="hsl(228.5, 77.2%, 51.5%)" stroke-width="1.5"></path><path d="M1123.26 255.26L1004.61 407.96" stroke="hsl(228.5, 77.2%, 51.5%)" stroke-width="1.5"></path><path d="M1123.26 255.26L1299.49 360.38" stroke="hsl(228.5, 77.2%, 51.5%)" stroke-width="1.5"></path><path d="M1108.89 406.13L1108.89 406.13" stroke="hsl(228.5, 77.2%, 51.5%)" stroke-width="1.5"></path><path d="M1161.29 551.45L1161.29 551.45" stroke="hsl(228.5, 77.2%, 51.5%)" stroke-width="1.5"></path><path d="M1161.29 551.45L1244.31 501.38" stroke="hsl(228.5, 77.2%, 51.5%)" stroke-width="1.5"></path><path d="M1161.29 551.45L1133.93 655.11" stroke="hsl(228.5, 77.2%, 51.5%)" stroke-width="1.5"></path><path d="M1161.29 551.45L1108.89 406.13" stroke="hsl(228.5, 77.2%, 51.5%)" stroke-width="1.5"></path><path d="M1161.29 551.45L1301.17 638.56" stroke="hsl(228.5, 77.2%, 51.5%)" stroke-width="1.5"></path><path d="M1161.29 551.45L1004.61 407.96" stroke="hsl(228.5, 77.2%, 51.5%)" stroke-width="1.5"></path><path d="M1133.93 655.11L1133.93 655.11" stroke="hsl(228.5, 77.2%, 51.5%)" stroke-width="1.5"></path><path d="M1133.93 655.11L1301.17 638.56" stroke="hsl(228.5, 77.2%, 51.5%)" stroke-width="1.5"></path><path d="M1133.93 655.11L1244.31 501.38" stroke="hsl(228.5, 77.2%, 51.5%)" stroke-width="1.5"></path><path d="M1133.93 655.11L947.64 519.37" stroke="hsl(228.5, 77.2%, 51.5%)" stroke-width="1.5"></path><path d="M1269.44 86.69L1269.44 86.69" stroke="hsl(228.5, 77.2%, 51.5%)" stroke-width="1.5"></path><path d="M1269.44 86.69L1424.05 90.2" stroke="hsl(228.5, 77.2%, 51.5%)" stroke-width="1.5"></path><path d="M1269.44 86.69L1419.81 209.65" stroke="hsl(228.5, 77.2%, 51.5%)" stroke-width="1.5"></path><path d="M1269.44 86.69L1123.26 255.26" stroke="hsl(228.5, 77.2%, 51.5%)" stroke-width="1.5"></path><path d="M1244.31 501.38L1244.31 501.38" stroke="hsl(228.5, 77.2%, 51.5%)" stroke-width="1.5"></path><path d="M1244.31 501.38L1301.17 638.56" stroke="hsl(228.5, 77.2%, 51.5%)" stroke-width="1.5"></path><path d="M1301.17 638.56L1301.17 638.56" stroke="hsl(228.5, 77.2%, 51.5%)" stroke-width="1.5"></path><path d="M1301.17 638.56L1409.39 675.54" stroke="hsl(228.5, 77.2%, 51.5%)" stroke-width="1.5"></path><path d="M1301.17 638.56L1450.52 537.99" stroke="hsl(228.5, 77.2%, 51.5%)" stroke-width="1.5"></path><path d="M1457.59 -63.24L1457.59 -63.24" stroke="hsl(228.5, 77.2%, 51.5%)" stroke-width="1.5"></path><path d="M1457.59 -63.24L1607.5 -72.03" stroke="hsl(228.5, 77.2%, 51.5%)" stroke-width="1.5"></path><path d="M1457.59 -63.24L1424.05 90.2" stroke="hsl(228.5, 77.2%, 51.5%)" stroke-width="1.5"></path><path d="M1424.05 90.2L1424.05 90.2" stroke="hsl(228.5, 77.2%, 51.5%)" stroke-width="1.5"></path><path d="M1424.05 90.2L1419.81 209.65" stroke="hsl(228.5, 77.2%, 51.5%)" stroke-width="1.5"></path><path d="M1424.05 90.2L1589.1 86.91" stroke="hsl(228.5, 77.2%, 51.5%)" stroke-width="1.5"></path><path d="M1424.05 90.2L1588.8 216.28" stroke="hsl(228.5, 77.2%, 51.5%)" stroke-width="1.5"></path><path d="M1419.81 209.65L1419.81 209.65" stroke="hsl(228.5, 77.2%, 51.5%)" stroke-width="1.5"></path><path d="M1419.81 209.65L1588.8 216.28" stroke="hsl(228.5, 77.2%, 51.5%)" stroke-width="1.5"></path><path d="M1419.81 209.65L1428.16 386" stroke="hsl(228.5, 77.2%, 51.5%)" stroke-width="1.5"></path><path d="M1419.81 209.65L1299.49 360.38" stroke="hsl(228.5, 77.2%, 51.5%)" stroke-width="1.5"></path><path d="M1428.16 386L1428.16 386" stroke="hsl(228.5, 77.2%, 51.5%)" stroke-width="1.5"></path><path d="M1428.16 386L1450.52 537.99" stroke="hsl(228.5, 77.2%, 51.5%)" stroke-width="1.5"></path><path d="M1428.16 386L1581.34 360.31" stroke="hsl(228.5, 77.2%, 51.5%)" stroke-width="1.5"></path><path d="M1428.16 386L1244.31 501.38" stroke="hsl(228.5, 77.2%, 51.5%)" stroke-width="1.5"></path><path d="M1450.52 537.99L1450.52 537.99" stroke="hsl(228.5, 77.2%, 51.5%)" stroke-width="1.5"></path><path d="M1450.52 537.99L1409.39 675.54" stroke="hsl(228.5, 77.2%, 51.5%)" stroke-width="1.5"></path><path d="M1450.52 537.99L1244.31 501.38" stroke="hsl(228.5, 77.2%, 51.5%)" stroke-width="1.5"></path><path d="M1409.39 675.54L1409.39 675.54" stroke="hsl(228.5, 77.2%, 51.5%)" stroke-width="1.5"></path><path d="M1607.5 -72.03L1607.5 -72.03" stroke="hsl(228.5, 77.2%, 51.5%)" stroke-width="1.5"></path><path d="M1607.5 -72.03L1589.1 86.91" stroke="hsl(228.5, 77.2%, 51.5%)" stroke-width="1.5"></path><path d="M1607.5 -72.03L1424.05 90.2" stroke="hsl(228.5, 77.2%, 51.5%)" stroke-width="1.5"></path><path d="M1607.5 -72.03L1588.8 216.28" stroke="hsl(228.5, 77.2%, 51.5%)" stroke-width="1.5"></path><path d="M1589.1 86.91L1589.1 86.91" stroke="hsl(228.5, 77.2%, 51.5%)" stroke-width="1.5"></path><path d="M1607.01 683.74L1607.01 683.74" stroke="hsl(228.5, 77.2%, 51.5%)" stroke-width="1.5"></path><path d="M1607.01 683.74L1409.39 675.54" stroke="hsl(228.5, 77.2%, 51.5%)" stroke-width="1.5"></path><path d="M1607.01 683.74L1450.52 537.99" stroke="hsl(228.5, 77.2%, 51.5%)" stroke-width="1.5"></path><path d="M1607.01 683.74L1301.17 638.56" stroke="hsl(228.5, 77.2%, 51.5%)" stroke-width="1.5"></path><circle r="25" cx="201.69" cy="641.27" fill="url(#SvgjsRadialGradient1001)"></circle><circle r="25" cx="1162.05" cy="-71.09" fill="url(#SvgjsRadialGradient1001)"></circle><circle r="25" cx="1280.02" cy="-74.36" fill="url(#SvgjsRadialGradient1001)"></circle><circle r="25" cx="1299.49" cy="360.38" fill="url(#SvgjsRadialGradient1001)"></circle><circle r="25" cx="1588.8" cy="216.28" fill="url(#SvgjsRadialGradient1001)"></circle><circle r="25" cx="1581.34" cy="360.31" fill="url(#SvgjsRadialGradient1001)"></circle><circle r="5" cx="-83.61" cy="519.52" fill="#8b9ad9"></circle><circle r="5" cx="-39.45" cy="658.82" fill="#8b9ad9"></circle><circle r="5" cx="54.32" cy="525.69" fill="#8b9ad9"></circle><circle r="5" cx="72.33" cy="674.67" fill="#8b9ad9"></circle><circle r="5" cx="230.72" cy="532.26" fill="#8b9ad9"></circle><circle r="5" cx="361.69" cy="543.31" fill="#8b9ad9"></circle><circle r="5" cx="359.8" cy="640.55" fill="#8b9ad9"></circle><circle r="5" cx="514.72" cy="504.8" fill="#8b9ad9"></circle><circle r="5" cx="560.2" cy="691.52" fill="#8b9ad9"></circle><circle r="5" cx="648.39" cy="389.25" fill="#8b9ad9"></circle><circle r="5" cx="670.57" cy="545.13" fill="#8b9ad9"></circle><circle r="5" cx="710.07" cy="653.74" fill="#8b9ad9"></circle><circle r="5" cx="792.54" cy="346.25" fill="#8b9ad9"></circle><circle r="5" cx="831.17" cy="508.66" fill="#8b9ad9"></circle><circle r="5" cx="846.58" cy="640" fill="#8b9ad9"></circle><circle r="5" cx="1004.61" cy="407.96" fill="#8b9ad9"></circle><circle r="5" cx="947.64" cy="519.37" fill="#8b9ad9"></circle><circle r="5" cx="966.92" cy="640.63" fill="#8b9ad9"></circle><circle r="5" cx="1123.26" cy="255.26" fill="#8b9ad9"></circle><circle r="5" cx="1108.89" cy="406.13" fill="#8b9ad9"></circle><circle r="5" cx="1161.29" cy="551.45" fill="#8b9ad9"></circle><circle r="5" cx="1133.93" cy="655.11" fill="#8b9ad9"></circle><circle r="5" cx="1269.44" cy="86.69" fill="#8b9ad9"></circle><circle r="5" cx="1244.31" cy="501.38" fill="#8b9ad9"></circle><circle r="5" cx="1301.17" cy="638.56" fill="#8b9ad9"></circle><circle r="5" cx="1457.59" cy="-63.24" fill="#8b9ad9"></circle><circle r="5" cx="1424.05" cy="90.2" fill="#8b9ad9"></circle><circle r="5" cx="1419.81" cy="209.65" fill="#8b9ad9"></circle><circle r="5" cx="1428.16" cy="386" fill="#8b9ad9"></circle><circle r="5" cx="1450.52" cy="537.99" fill="#8b9ad9"></circle><circle r="5" cx="1409.39" cy="675.54" fill="#8b9ad9"></circle><circle r="5" cx="1607.5" cy="-72.03" fill="#8b9ad9"></circle><circle r="5" cx="1589.1" cy="86.91" fill="#8b9ad9"></circle><circle r="5" cx="1607.01" cy="683.74" fill="#8b9ad9"></circle></g><defs><mask id="SvgjsMask1000"><rect width="1444" height="567" fill="#ffffff"></rect></mask><radialGradient id="SvgjsRadialGradient1001"><stop stop-color="#ffffff" offset="0.1"></stop><stop stop-color="#1735b3" offset="0.2"></stop><stop stop-color="rgba(23, 53, 179, 0)" offset="1"></stop></radialGradient></defs></svg>